<mxfile host="Electron" agent="Mozilla/5.0 (Windows NT 10.0; Win64; x64) AppleWebKit/537.36 (KHTML, like Gecko) draw.io/24.7.8 Chrome/128.0.6613.36 Electron/32.0.1 Safari/537.36" version="24.7.8">
  <diagram name="Page-1" id="7VRpodiRdboSWNa2oehs">
    <mxGraphModel dx="794" dy="511" grid="1" gridSize="10" guides="1" tooltips="1" connect="1" arrows="1" fold="1" page="1" pageScale="1" pageWidth="850" pageHeight="1100" math="0" shadow="0">
      <root>
        <mxCell id="0" />
        <mxCell id="1" parent="0" />
        <mxCell id="6lhYrfu2jyH6uwWZrN4R-1" value="HTML" style="rounded=0;whiteSpace=wrap;html=1;" vertex="1" parent="1">
          <mxGeometry x="80" y="40" width="120" height="60" as="geometry" />
        </mxCell>
        <mxCell id="6lhYrfu2jyH6uwWZrN4R-2" value="WIKI" style="rounded=0;whiteSpace=wrap;html=1;" vertex="1" parent="1">
          <mxGeometry x="500" y="40" width="120" height="60" as="geometry" />
        </mxCell>
        <mxCell id="6lhYrfu2jyH6uwWZrN4R-4" value="LANGUAGES" style="rounded=0;whiteSpace=wrap;html=1;fillColor=#a20025;fontColor=#ffffff;strokeColor=#6F0000;" vertex="1" parent="1">
          <mxGeometry x="300" y="210" width="120" height="60" as="geometry" />
        </mxCell>
        <mxCell id="6lhYrfu2jyH6uwWZrN4R-5" value="PROGRAMMING LANGUAGES" style="rounded=0;whiteSpace=wrap;html=1;fillColor=#1ba1e2;fontColor=#ffffff;strokeColor=#006EAF;" vertex="1" parent="1">
          <mxGeometry x="360" y="270" width="120" height="60" as="geometry" />
        </mxCell>
        <mxCell id="6lhYrfu2jyH6uwWZrN4R-6" value="MARKUP LANGUAGE" style="rounded=0;whiteSpace=wrap;html=1;" vertex="1" parent="1">
          <mxGeometry x="360" y="330" width="120" height="60" as="geometry" />
        </mxCell>
        <mxCell id="6lhYrfu2jyH6uwWZrN4R-7" value="QUERY LANGUAGES" style="rounded=0;whiteSpace=wrap;html=1;" vertex="1" parent="1">
          <mxGeometry x="360" y="390" width="120" height="60" as="geometry" />
        </mxCell>
        <mxCell id="6lhYrfu2jyH6uwWZrN4R-8" value="ASSEMBLY LANGUAGE" style="rounded=0;whiteSpace=wrap;html=1;" vertex="1" parent="1">
          <mxGeometry x="620" y="270" width="120" height="60" as="geometry" />
        </mxCell>
        <mxCell id="6lhYrfu2jyH6uwWZrN4R-9" value="SCRIPTING LANGUAGE" style="rounded=0;whiteSpace=wrap;html=1;" vertex="1" parent="1">
          <mxGeometry x="360" y="450" width="120" height="60" as="geometry" />
        </mxCell>
        <mxCell id="6lhYrfu2jyH6uwWZrN4R-10" value="OOPS" style="rounded=0;whiteSpace=wrap;html=1;" vertex="1" parent="1">
          <mxGeometry x="360" y="510" width="120" height="60" as="geometry" />
        </mxCell>
        <mxCell id="6lhYrfu2jyH6uwWZrN4R-11" value="XML,HTML" style="rounded=0;whiteSpace=wrap;html=1;" vertex="1" parent="1">
          <mxGeometry x="480" y="330" width="120" height="60" as="geometry" />
        </mxCell>
        <mxCell id="6lhYrfu2jyH6uwWZrN4R-12" value="SQL,HQL" style="rounded=0;whiteSpace=wrap;html=1;" vertex="1" parent="1">
          <mxGeometry x="480" y="390" width="120" height="60" as="geometry" />
        </mxCell>
        <mxCell id="6lhYrfu2jyH6uwWZrN4R-13" value="UNIX, JAVASCRIPT" style="rounded=0;whiteSpace=wrap;html=1;" vertex="1" parent="1">
          <mxGeometry x="480" y="450" width="120" height="60" as="geometry" />
        </mxCell>
        <mxCell id="6lhYrfu2jyH6uwWZrN4R-14" value="JAVA,C++,C#" style="rounded=0;whiteSpace=wrap;html=1;" vertex="1" parent="1">
          <mxGeometry x="480" y="510" width="120" height="60" as="geometry" />
        </mxCell>
        <mxCell id="6lhYrfu2jyH6uwWZrN4R-15" value="PROCEDURAL" style="rounded=0;whiteSpace=wrap;html=1;" vertex="1" parent="1">
          <mxGeometry x="360" y="570" width="120" height="60" as="geometry" />
        </mxCell>
        <mxCell id="6lhYrfu2jyH6uwWZrN4R-16" value="C" style="rounded=0;whiteSpace=wrap;html=1;" vertex="1" parent="1">
          <mxGeometry x="480" y="570" width="120" height="60" as="geometry" />
        </mxCell>
        <mxCell id="6lhYrfu2jyH6uwWZrN4R-17" value="LANGUAGES WITH BRACES" style="rounded=0;whiteSpace=wrap;html=1;" vertex="1" parent="1">
          <mxGeometry x="140" y="890" width="120" height="60" as="geometry" />
        </mxCell>
        <mxCell id="6lhYrfu2jyH6uwWZrN4R-18" value="LANGUAGES WITH KEYWORDS" style="rounded=0;whiteSpace=wrap;html=1;" vertex="1" parent="1">
          <mxGeometry x="290" y="890" width="120" height="60" as="geometry" />
        </mxCell>
        <mxCell id="6lhYrfu2jyH6uwWZrN4R-19" value="LANGUAGES WITH OS RELATED COMMANDS" style="rounded=0;whiteSpace=wrap;html=1;" vertex="1" parent="1">
          <mxGeometry x="440" y="890" width="120" height="60" as="geometry" />
        </mxCell>
        <mxCell id="6lhYrfu2jyH6uwWZrN4R-20" value="C,C++" style="rounded=0;whiteSpace=wrap;html=1;" vertex="1" parent="1">
          <mxGeometry x="140" y="950" width="120" height="60" as="geometry" />
        </mxCell>
        <mxCell id="6lhYrfu2jyH6uwWZrN4R-21" value="LANGUAGES WITH TAGS" style="rounded=0;whiteSpace=wrap;html=1;" vertex="1" parent="1">
          <mxGeometry x="590" y="890" width="120" height="60" as="geometry" />
        </mxCell>
        <mxCell id="6lhYrfu2jyH6uwWZrN4R-22" value="SQL" style="rounded=0;whiteSpace=wrap;html=1;" vertex="1" parent="1">
          <mxGeometry x="290" y="950" width="120" height="60" as="geometry" />
        </mxCell>
        <mxCell id="6lhYrfu2jyH6uwWZrN4R-23" value="LINUX,UNIX" style="rounded=0;whiteSpace=wrap;html=1;" vertex="1" parent="1">
          <mxGeometry x="440" y="950" width="120" height="60" as="geometry" />
        </mxCell>
        <mxCell id="6lhYrfu2jyH6uwWZrN4R-24" value="HTML,XML" style="rounded=0;whiteSpace=wrap;html=1;" vertex="1" parent="1">
          <mxGeometry x="590" y="950" width="120" height="60" as="geometry" />
        </mxCell>
      </root>
    </mxGraphModel>
  </diagram>
</mxfile>
